<mxfile host="app.diagrams.net" modified="2023-09-08T11:37:33.554Z" agent="Mozilla/5.0 (Windows NT 10.0; Win64; x64) AppleWebKit/537.36 (KHTML, like Gecko) Chrome/116.0.0.0 Safari/537.36" etag="EUUI8aa-epj7B6_pZu4z" version="21.7.2" type="device">
  <diagram name="Страница — 1" id="fczIeShgcwE_XA0xXVPk">
    <mxGraphModel dx="1195" dy="658" grid="1" gridSize="10" guides="1" tooltips="1" connect="1" arrows="1" fold="1" page="1" pageScale="1" pageWidth="827" pageHeight="1169" math="0" shadow="0">
      <root>
        <mxCell id="0" />
        <mxCell id="1" parent="0" />
        <mxCell id="0Lq3dCCnlakvQZ42qWG0-482" value="" style="group" vertex="1" connectable="0" parent="1">
          <mxGeometry x="130" y="290" width="743" height="420" as="geometry" />
        </mxCell>
        <mxCell id="0Lq3dCCnlakvQZ42qWG0-323" value="" style="group" vertex="1" connectable="0" parent="0Lq3dCCnlakvQZ42qWG0-482">
          <mxGeometry x="60" y="150" width="640" height="270" as="geometry" />
        </mxCell>
        <mxCell id="0Lq3dCCnlakvQZ42qWG0-319" value="&quot;extend&quot;" style="html=1;verticalAlign=bottom;endArrow=open;dashed=1;endSize=8;curved=0;rounded=0;" edge="1" parent="0Lq3dCCnlakvQZ42qWG0-323">
          <mxGeometry relative="1" as="geometry">
            <mxPoint x="380" y="120" as="sourcePoint" />
            <mxPoint x="300" y="120" as="targetPoint" />
            <Array as="points">
              <mxPoint x="380" y="120" />
            </Array>
          </mxGeometry>
        </mxCell>
        <mxCell id="0Lq3dCCnlakvQZ42qWG0-267" value="Преподаватель" style="shape=umlActor;verticalLabelPosition=bottom;verticalAlign=top;html=1;" vertex="1" parent="0Lq3dCCnlakvQZ42qWG0-323">
          <mxGeometry x="30" y="40" width="28.965517241379313" height="60" as="geometry" />
        </mxCell>
        <mxCell id="0Lq3dCCnlakvQZ42qWG0-300" value="Выставить оценки в электронный журнал" style="strokeWidth=2;html=1;shape=mxgraph.flowchart.start_1;whiteSpace=wrap;" vertex="1" parent="0Lq3dCCnlakvQZ42qWG0-323">
          <mxGeometry x="130.00206896551725" y="100" width="154.48275862068965" height="50" as="geometry" />
        </mxCell>
        <mxCell id="0Lq3dCCnlakvQZ42qWG0-302" value="" style="endArrow=none;html=1;rounded=0;" edge="1" parent="0Lq3dCCnlakvQZ42qWG0-323">
          <mxGeometry width="50" height="50" relative="1" as="geometry">
            <mxPoint x="68.62068965517241" y="80" as="sourcePoint" />
            <mxPoint x="145.86206896551727" y="110" as="targetPoint" />
          </mxGeometry>
        </mxCell>
        <mxCell id="0Lq3dCCnlakvQZ42qWG0-305" value="Разместить материалы для урока" style="ellipse;whiteSpace=wrap;html=1;container=0;" vertex="1" parent="0Lq3dCCnlakvQZ42qWG0-323">
          <mxGeometry x="136.21034482758623" y="40" width="77.24137931034483" height="60" as="geometry" />
        </mxCell>
        <mxCell id="0Lq3dCCnlakvQZ42qWG0-306" value="" style="line;strokeWidth=2;html=1;" vertex="1" parent="0Lq3dCCnlakvQZ42qWG0-323">
          <mxGeometry x="68.62068965517241" y="60" width="67.58620689655173" height="10" as="geometry" />
        </mxCell>
        <mxCell id="0Lq3dCCnlakvQZ42qWG0-316" value="" style="group" vertex="1" connectable="0" parent="0Lq3dCCnlakvQZ42qWG0-323">
          <mxGeometry x="380" y="60" width="230" height="120" as="geometry" />
        </mxCell>
        <mxCell id="0Lq3dCCnlakvQZ42qWG0-312" value="" style="group" vertex="1" connectable="0" parent="0Lq3dCCnlakvQZ42qWG0-316">
          <mxGeometry width="230" height="72" as="geometry" />
        </mxCell>
        <mxCell id="0Lq3dCCnlakvQZ42qWG0-310" value="узнать расписание" style="ellipse;whiteSpace=wrap;html=1;" vertex="1" parent="0Lq3dCCnlakvQZ42qWG0-312">
          <mxGeometry y="6" width="133.1578947368421" height="60" as="geometry" />
        </mxCell>
        <mxCell id="0Lq3dCCnlakvQZ42qWG0-313" value="" style="group" vertex="1" connectable="0" parent="0Lq3dCCnlakvQZ42qWG0-312">
          <mxGeometry x="133.1578947368421" width="96.8421052631579" height="72" as="geometry" />
        </mxCell>
        <mxCell id="0Lq3dCCnlakvQZ42qWG0-309" value="" style="group" vertex="1" connectable="0" parent="0Lq3dCCnlakvQZ42qWG0-313">
          <mxGeometry x="60.526315789473685" width="36.31578947368421" height="72" as="geometry" />
        </mxCell>
        <mxCell id="0Lq3dCCnlakvQZ42qWG0-307" value="обучающийся" style="shape=umlActor;verticalLabelPosition=bottom;verticalAlign=top;html=1;" vertex="1" parent="0Lq3dCCnlakvQZ42qWG0-309">
          <mxGeometry width="36.31578947368421" height="72" as="geometry" />
        </mxCell>
        <mxCell id="0Lq3dCCnlakvQZ42qWG0-513" value="" style="endArrow=none;html=1;rounded=0;" edge="1" parent="0Lq3dCCnlakvQZ42qWG0-313">
          <mxGeometry relative="1" as="geometry">
            <mxPoint x="6.842105263157919" y="36" as="sourcePoint" />
            <mxPoint x="76.84210526315792" y="35.58000000000004" as="targetPoint" />
            <Array as="points">
              <mxPoint x="36.84210526315792" y="35.58000000000004" />
            </Array>
          </mxGeometry>
        </mxCell>
        <mxCell id="0Lq3dCCnlakvQZ42qWG0-315" value="" style="endArrow=none;html=1;rounded=0;" edge="1" parent="0Lq3dCCnlakvQZ42qWG0-312">
          <mxGeometry width="50" height="50" relative="1" as="geometry">
            <mxPoint x="121.05263157894737" y="84" as="sourcePoint" />
            <mxPoint x="181.57894736842104" y="72" as="targetPoint" />
          </mxGeometry>
        </mxCell>
        <mxCell id="0Lq3dCCnlakvQZ42qWG0-314" value="узнать свои оценки" style="ellipse;whiteSpace=wrap;html=1;" vertex="1" parent="0Lq3dCCnlakvQZ42qWG0-316">
          <mxGeometry x="12.105263157894738" y="72" width="108.94736842105263" height="48" as="geometry" />
        </mxCell>
        <mxCell id="0Lq3dCCnlakvQZ42qWG0-461" value="" style="endArrow=none;html=1;rounded=0;entryX=0.236;entryY=1.033;entryDx=0;entryDy=0;entryPerimeter=0;" edge="1" parent="0Lq3dCCnlakvQZ42qWG0-323" target="0Lq3dCCnlakvQZ42qWG0-318">
          <mxGeometry width="50" height="50" relative="1" as="geometry">
            <mxPoint x="66" y="60" as="sourcePoint" />
            <mxPoint x="156" y="-30" as="targetPoint" />
          </mxGeometry>
        </mxCell>
        <mxCell id="0Lq3dCCnlakvQZ42qWG0-304" value="" style="group" vertex="1" connectable="0" parent="0Lq3dCCnlakvQZ42qWG0-323">
          <mxGeometry x="30" y="150" width="200" height="90" as="geometry" />
        </mxCell>
        <mxCell id="0Lq3dCCnlakvQZ42qWG0-297" value="Составить расписание родительских собраний" style="strokeWidth=2;html=1;shape=mxgraph.flowchart.start_1;whiteSpace=wrap;" vertex="1" parent="0Lq3dCCnlakvQZ42qWG0-304">
          <mxGeometry x="80" y="20" width="90" height="70" as="geometry" />
        </mxCell>
        <mxCell id="0Lq3dCCnlakvQZ42qWG0-298" value="" style="group" vertex="1" connectable="0" parent="0Lq3dCCnlakvQZ42qWG0-304">
          <mxGeometry width="30" height="90" as="geometry" />
        </mxCell>
        <mxCell id="0Lq3dCCnlakvQZ42qWG0-270" value="кл руководитель" style="shape=umlActor;verticalLabelPosition=bottom;verticalAlign=top;html=1;container=0;" vertex="1" parent="0Lq3dCCnlakvQZ42qWG0-298">
          <mxGeometry y="30" width="30" height="60" as="geometry" />
        </mxCell>
        <mxCell id="0Lq3dCCnlakvQZ42qWG0-273" value="" style="strokeWidth=2;html=1;shape=mxgraph.flowchart.extract_or_measurement;whiteSpace=wrap;container=0;" vertex="1" parent="0Lq3dCCnlakvQZ42qWG0-298">
          <mxGeometry x="10" width="10" height="10" as="geometry" />
        </mxCell>
        <mxCell id="0Lq3dCCnlakvQZ42qWG0-276" value="" style="line;strokeWidth=2;direction=south;html=1;container=0;" vertex="1" parent="0Lq3dCCnlakvQZ42qWG0-298">
          <mxGeometry x="10" y="10" width="10" height="20" as="geometry" />
        </mxCell>
        <mxCell id="0Lq3dCCnlakvQZ42qWG0-299" value="" style="line;strokeWidth=1;rotatable=0;dashed=0;labelPosition=right;align=left;verticalAlign=middle;spacingTop=0;spacingLeft=6;points=[];portConstraint=eastwest;" vertex="1" parent="0Lq3dCCnlakvQZ42qWG0-304">
          <mxGeometry x="20" y="50" width="60" height="10" as="geometry" />
        </mxCell>
        <mxCell id="0Lq3dCCnlakvQZ42qWG0-318" value="отправить сообщение" style="ellipse;whiteSpace=wrap;html=1;" vertex="1" parent="0Lq3dCCnlakvQZ42qWG0-482">
          <mxGeometry x="330" y="40" width="140" height="60" as="geometry" />
        </mxCell>
        <mxCell id="0Lq3dCCnlakvQZ42qWG0-481" value="" style="endArrow=none;html=1;rounded=0;exitX=0.9;exitY=0.783;exitDx=0;exitDy=0;exitPerimeter=0;" edge="1" parent="0Lq3dCCnlakvQZ42qWG0-482" source="0Lq3dCCnlakvQZ42qWG0-318" target="0Lq3dCCnlakvQZ42qWG0-307">
          <mxGeometry width="50" height="50" relative="1" as="geometry">
            <mxPoint x="550" y="120" as="sourcePoint" />
            <mxPoint x="600" y="70" as="targetPoint" />
          </mxGeometry>
        </mxCell>
        <mxCell id="0Lq3dCCnlakvQZ42qWG0-488" value="" style="group" vertex="1" connectable="0" parent="0Lq3dCCnlakvQZ42qWG0-482">
          <mxGeometry y="-10" width="150" height="190" as="geometry" />
        </mxCell>
        <mxCell id="0Lq3dCCnlakvQZ42qWG0-324" value="Зам директора" style="shape=umlActor;verticalLabelPosition=bottom;verticalAlign=top;html=1;" vertex="1" parent="0Lq3dCCnlakvQZ42qWG0-488">
          <mxGeometry x="120" width="30" height="60" as="geometry" />
        </mxCell>
        <mxCell id="0Lq3dCCnlakvQZ42qWG0-336" value="опубликовать пост с важной информацией" style="strokeWidth=2;html=1;shape=mxgraph.flowchart.start_1;whiteSpace=wrap;" vertex="1" parent="0Lq3dCCnlakvQZ42qWG0-488">
          <mxGeometry x="-130" y="120" width="230" height="70" as="geometry" />
        </mxCell>
        <mxCell id="0Lq3dCCnlakvQZ42qWG0-343" value="" style="endArrow=none;html=1;rounded=0;" edge="1" parent="0Lq3dCCnlakvQZ42qWG0-488">
          <mxGeometry width="50" height="50" relative="1" as="geometry">
            <mxPoint x="80" y="130" as="sourcePoint" />
            <mxPoint x="130" y="80" as="targetPoint" />
            <Array as="points" />
          </mxGeometry>
        </mxCell>
        <mxCell id="0Lq3dCCnlakvQZ42qWG0-489" value="" style="endArrow=none;html=1;rounded=0;" edge="1" parent="0Lq3dCCnlakvQZ42qWG0-482">
          <mxGeometry width="50" height="50" relative="1" as="geometry">
            <mxPoint x="150" as="sourcePoint" />
            <mxPoint x="330" y="70" as="targetPoint" />
          </mxGeometry>
        </mxCell>
        <mxCell id="0Lq3dCCnlakvQZ42qWG0-486" value="" style="group" vertex="1" connectable="0" parent="0Lq3dCCnlakvQZ42qWG0-482">
          <mxGeometry x="600" y="40" width="100" height="60" as="geometry" />
        </mxCell>
        <mxCell id="0Lq3dCCnlakvQZ42qWG0-484" value="прикрепить файл к сообщению" style="strokeWidth=2;html=1;shape=mxgraph.flowchart.start_1;whiteSpace=wrap;" vertex="1" parent="0Lq3dCCnlakvQZ42qWG0-486">
          <mxGeometry width="100" height="60" as="geometry" />
        </mxCell>
        <mxCell id="0Lq3dCCnlakvQZ42qWG0-485" value="&quot;extend&quot;" style="html=1;verticalAlign=bottom;endArrow=open;dashed=1;endSize=8;curved=0;rounded=0;" edge="1" parent="0Lq3dCCnlakvQZ42qWG0-486">
          <mxGeometry relative="1" as="geometry">
            <mxPoint y="29.5" as="sourcePoint" />
            <mxPoint x="-130" y="30" as="targetPoint" />
            <Array as="points">
              <mxPoint y="29.5" />
            </Array>
          </mxGeometry>
        </mxCell>
        <mxCell id="0Lq3dCCnlakvQZ42qWG0-495" value="составить расписание" style="strokeWidth=2;html=1;shape=mxgraph.flowchart.start_1;whiteSpace=wrap;" vertex="1" parent="1">
          <mxGeometry x="314" y="180" width="100" height="60" as="geometry" />
        </mxCell>
        <mxCell id="0Lq3dCCnlakvQZ42qWG0-497" value="" style="endArrow=none;html=1;rounded=0;" edge="1" parent="1">
          <mxGeometry width="50" height="50" relative="1" as="geometry">
            <mxPoint x="280" y="280" as="sourcePoint" />
            <mxPoint x="330" y="230" as="targetPoint" />
          </mxGeometry>
        </mxCell>
        <mxCell id="0Lq3dCCnlakvQZ42qWG0-498" value="" style="endArrow=open;endSize=12;dashed=1;html=1;rounded=0;" edge="1" parent="1">
          <mxGeometry width="160" relative="1" as="geometry">
            <mxPoint x="400" y="190" as="sourcePoint" />
            <mxPoint x="480" y="130" as="targetPoint" />
            <Array as="points" />
          </mxGeometry>
        </mxCell>
        <mxCell id="0Lq3dCCnlakvQZ42qWG0-499" value="include" style="text;html=1;align=center;verticalAlign=middle;resizable=0;points=[];autosize=1;strokeColor=none;fillColor=none;rotation=-35;" vertex="1" parent="1">
          <mxGeometry x="390" y="140" width="60" height="30" as="geometry" />
        </mxCell>
        <mxCell id="0Lq3dCCnlakvQZ42qWG0-504" value="составить расписание занятий" style="strokeWidth=2;html=1;shape=mxgraph.flowchart.start_1;whiteSpace=wrap;" vertex="1" parent="1">
          <mxGeometry x="470" y="80" width="100" height="60" as="geometry" />
        </mxCell>
        <mxCell id="0Lq3dCCnlakvQZ42qWG0-505" value="составить расписание мероприятий" style="strokeWidth=2;html=1;shape=mxgraph.flowchart.start_1;whiteSpace=wrap;" vertex="1" parent="1">
          <mxGeometry x="570" y="140" width="100" height="60" as="geometry" />
        </mxCell>
        <mxCell id="0Lq3dCCnlakvQZ42qWG0-506" value="составить расписание каникул" style="strokeWidth=2;html=1;shape=mxgraph.flowchart.start_1;whiteSpace=wrap;" vertex="1" parent="1">
          <mxGeometry x="587" y="220" width="100" height="60" as="geometry" />
        </mxCell>
        <mxCell id="0Lq3dCCnlakvQZ42qWG0-509" value="include" style="html=1;verticalAlign=bottom;endArrow=open;dashed=1;endSize=8;curved=0;rounded=0;entryX=0.08;entryY=0.783;entryDx=0;entryDy=0;entryPerimeter=0;exitX=1;exitY=0.5;exitDx=0;exitDy=0;exitPerimeter=0;" edge="1" parent="1" source="0Lq3dCCnlakvQZ42qWG0-495" target="0Lq3dCCnlakvQZ42qWG0-505">
          <mxGeometry x="0.0024" relative="1" as="geometry">
            <mxPoint x="420" y="210" as="sourcePoint" />
            <mxPoint x="410" y="220" as="targetPoint" />
            <mxPoint as="offset" />
          </mxGeometry>
        </mxCell>
        <mxCell id="0Lq3dCCnlakvQZ42qWG0-510" value="" style="endArrow=open;endSize=12;dashed=1;html=1;rounded=0;entryX=0;entryY=0.5;entryDx=0;entryDy=0;entryPerimeter=0;" edge="1" parent="1" target="0Lq3dCCnlakvQZ42qWG0-506">
          <mxGeometry x="-1" y="149" width="160" relative="1" as="geometry">
            <mxPoint x="410" y="230" as="sourcePoint" />
            <mxPoint x="570" y="230" as="targetPoint" />
            <mxPoint x="-100" y="39" as="offset" />
          </mxGeometry>
        </mxCell>
        <mxCell id="0Lq3dCCnlakvQZ42qWG0-512" value="include" style="text;html=1;align=center;verticalAlign=middle;resizable=0;points=[];autosize=1;strokeColor=none;fillColor=none;rotation=15;" vertex="1" parent="1">
          <mxGeometry x="490" y="220" width="60" height="30" as="geometry" />
        </mxCell>
      </root>
    </mxGraphModel>
  </diagram>
</mxfile>
